<svg xmlns="http://www.w3.org/2000/svg" width="24" height="24" fill="none" viewBox="0 0 24 24">
  <g clip-path="url(#a)">
    <path fill="currentColor" d="M4.592 2.28a.804.804 0 0 0-.555-.279.771.771 0 0 0-.582.215.831.831 0 0 0-.26.582.864.864 0 0 0 .213.602l1.924 2.204C1.7 7.924.138 11.5.069 11.663a.862.862 0 0 0 0 .676c.035.083.882 2.037 2.765 3.997 2.509 2.61 5.678 3.991 9.166 3.991a12.29 12.29 0 0 0 5.207-1.127l2.2 2.52a.774.774 0 0 0 1.137.064.831.831 0 0 0 .26-.582.863.863 0 0 0-.213-.602L4.592 2.28Zm4.733 7.894 4.167 4.773a3.09 3.09 0 0 1-2.045.332 3.168 3.168 0 0 1-1.813-1.04 3.436 3.436 0 0 1-.309-4.065ZM12 18.662c-3.078 0-5.767-1.165-7.993-3.461A13.83 13.83 0 0 1 1.7 12c.469-.915 1.966-3.476 4.735-5.14l1.8 2.056a5.134 5.134 0 0 0-1.013 3.262 5.106 5.106 0 0 0 1.245 3.174 4.743 4.743 0 0 0 2.918 1.591 4.649 4.649 0 0 0 3.216-.74l1.473 1.685c-1.3.52-2.682.782-4.074.774Zm.6-9.934a.799.799 0 0 1-.512-.35.86.86 0 0 1-.124-.624.836.836 0 0 1 .336-.533.775.775 0 0 1 .6-.129c1.02.206 1.948.75 2.647 1.55a5.112 5.112 0 0 1 1.23 2.889.856.856 0 0 1-.18.608.791.791 0 0 1-.542.298.626.626 0 0 1-.075 0 .782.782 0 0 1-.541-.216.845.845 0 0 1-.259-.54 3.406 3.406 0 0 0-.82-1.921 3.18 3.18 0 0 0-1.76-1.032Zm11.328 3.611c-.042.098-1.055 2.433-3.336 4.56a.795.795 0 0 1-.58.22.775.775 0 0 1-.559-.277.84.84 0 0 1-.202-.608.858.858 0 0 1 .274-.576A13.746 13.746 0 0 0 22.305 12a13.83 13.83 0 0 0-2.312-3.203C17.767 6.503 15.078 5.338 12 5.338c-.649 0-1.296.054-1.936.164a.77.77 0 0 1-.6-.14.854.854 0 0 1-.318-.87.85.85 0 0 1 .13-.297.814.814 0 0 1 .23-.223.78.78 0 0 1 .294-.113 12.887 12.887 0 0 1 2.2-.186c3.488 0 6.657 1.38 9.166 3.992 1.883 1.96 2.73 3.916 2.765 3.998a.862.862 0 0 1 0 .676h-.003Z"/>
  </g>
  <defs>
    <clipPath id="a">
      <path fill="currentColor" d="M0 0h24v24H0z"/>
    </clipPath>
  </defs>
</svg>
